<svg xmlns="http://www.w3.org/2000/svg" width="999" height="87" viewBox="0 0 999 87" fill="none"><path fill-rule="evenodd" clip-rule="evenodd" d="M25.011 5.573C-1.72304 16.727 -0.872042 15.868 0.590958 30.235C2.68696 50.837 14.262 71.215 29.376 80.913C38.009 86.453 39.714 86.667 46.926 83.116C62.275 75.56 75.496 56.219 79.092 36.061C81.143 24.566 80.93 19.575 78.261 16.618C75.893 13.994 43.284 -0.0609996 39.878 0.0740004C38.851 0.115 32.161 2.59 25.011 5.573ZM335.546 1.934C334.977 2.998 334.511 5.457 334.511 7.399V10.93L324.261 11.215L314.011 11.5L313.721 19.712C313.488 26.321 313.818 28.681 315.412 31.806C319.053 38.943 327.822 45.015 337.478 47.086C340.246 47.68 342.511 48.558 342.511 49.038C342.511 49.518 345.007 52.467 348.057 55.591C353.587 61.256 353.602 61.287 353.307 66.886L353.011 72.5L349.511 72.664C347.586 72.754 344.739 72.866 343.184 72.914C337.255 73.095 331.31 83.558 336.093 85.393C336.963 85.727 348.608 86 361.97 86C388.636 86 389.043 85.909 387.9 80.194C386.926 75.324 384.178 73.566 376.659 73L370.011 72.5L369.705 66.558C369.417 60.945 369.582 60.448 372.709 57.558C374.529 55.876 377.141 53.097 378.514 51.382C380.363 49.073 382.827 47.717 388.011 46.155C396.56 43.578 404.017 38.11 407.188 32.093C408.99 28.673 409.511 26.084 409.511 20.543C409.511 16.321 409.02 12.909 408.311 12.2C407.55 11.439 403.711 11 397.811 11H388.511V7.071C388.511 0.0229993 388.421 0 360.975 0C337.881 0 336.526 0.103 335.546 1.934ZM696.75 1.335C679.457 7.607 677.637 31.739 693.819 40.214C699.014 42.935 708.518 43.214 713.072 40.78C721.171 36.451 726.21 26.88 724.923 18.272C722.992 5.361 708.941 -3.086 696.75 1.335ZM103.154 6.018C94.415 8.668 91.049 18.694 95.761 28.038C97.555 31.597 98.852 32.791 102.166 33.937C107.901 35.919 113.825 34.173 116.555 29.696C118.895 25.858 118.963 25.11 117.036 24.371C116.144 24.029 114.219 25.227 112.168 27.403C108.552 31.236 107.04 31.654 103.168 29.89C98.249 27.648 96.734 17.529 100.584 12.635C103.457 8.982 109.511 8.913 112.332 12.5C115.478 16.499 119.232 15.677 117.29 11.414C115.227 6.887 108.614 4.362 103.154 6.018ZM431.806 6.097C428.204 7.15 425.511 10.365 425.511 13.612C425.511 17.177 428.685 19.979 434.429 21.486C440.497 23.078 443.083 25.066 442.173 27.437C440.529 31.723 432.18 31.342 429.634 26.865C426.884 22.031 423.351 23.784 425.481 28.927C427.027 32.66 430.745 34.5 436.744 34.5C441.077 34.5 442.039 34.093 444.675 31.143C449.77 25.44 446.905 19.978 437.522 17.503C430.876 15.75 428.601 13.802 430.51 11.501C432.579 9.008 439.73 9.86 440.998 12.75C441.992 15.016 444.903 15.792 445.965 14.075C446.762 12.785 444.716 8.609 442.657 7.323C439.915 5.611 435.266 5.086 431.806 6.097ZM519.511 6.288C517.944 7.077 516.893 8.564 516.695 10.273C516.514 11.827 515.762 13 514.945 13C513.042 13 513.097 16.627 515.011 17.362C516.172 17.807 516.511 19.752 516.511 25.969C516.511 33.333 516.677 34 518.511 34C520.354 34 520.511 33.333 520.511 25.5C520.511 17.667 520.668 17 522.511 17C523.674 17 524.511 16.333 524.511 15.406C524.511 14.53 523.611 13.577 522.511 13.29C519.895 12.606 519.92 10 522.542 10C525.023 10 526.332 7.133 524.407 5.914C522.616 4.781 522.486 4.79 519.511 6.288ZM792.261 5.555C791.848 5.983 791.511 12.59 791.511 20.236C791.511 34.082 791.52 34.138 793.761 33.82C795.712 33.542 796.051 32.82 796.309 28.385L796.606 23.269L802.797 22.708C807.85 22.25 809.404 21.663 811.25 19.517C814.135 16.163 814.134 11.835 811.245 8.477C809.246 6.153 808.038 5.78 800.995 5.31C796.604 5.017 792.674 5.127 792.261 5.555ZM832.199 5.646C830.658 7.186 831.551 10 833.581 10C835.136 10 835.571 9.461 835.331 7.828C834.999 5.573 833.391 4.453 832.199 5.646ZM904.178 5.667C902.686 7.159 903.56 10 905.511 10C906.978 10 907.511 9.333 907.511 7.5C907.511 5.147 905.696 4.149 904.178 5.667ZM926.178 5.667C925.811 6.033 925.511 7.958 925.511 9.943V13.553L921.461 13.167C914.493 12.502 910.329 18.897 912.494 26.938C913.969 32.415 916.768 34.084 923.937 33.76L929.684 33.5L929.683 26.5C929.68 7.295 929.52 5 928.178 5C927.444 5 926.544 5.3 926.178 5.667ZM971.199 5.646C970.82 6.024 970.511 8.047 970.511 10.142C970.511 13.829 970.417 13.931 967.548 13.357C960.203 11.888 955.861 16.544 956.801 24.883C957.551 31.533 960.679 33.913 968.528 33.802L974.564 33.716L974.288 19.69C974.03 6.614 973.345 3.5 971.199 5.646ZM485.691 8.24C486.166 11.564 489.511 11.856 489.511 8.573C489.511 6.638 488.998 6 487.441 6C485.87 6 485.449 6.539 485.691 8.24ZM573.261 7.08C569.517 9.261 571.321 10.664 577.761 10.581C583.452 10.507 584.04 10.299 584.331 8.25C584.657 5.952 582.242 5.008 581.035 6.962C580.654 7.578 579.53 7.578 577.91 6.962C574.934 5.83 575.429 5.817 573.261 7.08ZM475.711 8.2C475.051 8.86 474.511 9.991 474.511 10.714C474.511 11.436 473.949 12.935 473.261 14.044C472.292 15.607 472.281 16.23 473.213 16.81C473.925 17.253 474.536 20.592 474.713 25.003C474.981 31.711 475.248 32.566 477.404 33.638C478.721 34.292 480.408 34.593 481.154 34.307C483.221 33.514 482.772 30.301 480.511 29.71C478.807 29.265 478.511 28.346 478.511 23.5C478.511 18.654 478.807 17.735 480.511 17.29C481.611 17.002 482.511 16.102 482.511 15.29C482.511 14.477 481.611 13.577 480.511 13.29C479.094 12.919 478.511 11.926 478.511 9.883C478.511 6.797 477.639 6.272 475.711 8.2ZM807.903 12.25C809.848 15.35 807.474 17.461 801.658 17.802L796.511 18.105V14V9.895L801.658 10.198C805.239 10.408 807.139 11.032 807.903 12.25ZM59.511 18.832L69.011 22.834L68.873 29.667C68.555 45.456 57.344 65.001 44.136 72.794L40.511 74.933V42.981V11.029L45.261 12.93C47.873 13.975 54.286 16.631 59.511 18.832ZM126.531 14.284C119.175 18.006 120.102 31.39 127.893 33.961C134.913 36.278 140.75 32.115 140.915 24.674C140.968 22.271 140.399 19.161 139.651 17.763C137.29 13.349 131.443 11.799 126.531 14.284ZM145.511 23.634C145.511 33.333 145.64 34 147.511 34C149.315 34 149.511 33.333 149.511 27.191C149.511 19.756 150.966 16.557 154.077 17.152C155.773 17.477 156.047 18.536 156.301 25.761C156.582 33.728 156.672 34 159.009 34C161.33 34 161.439 33.693 161.719 26.355C162.025 18.344 163.379 15.968 166.875 17.309C168.202 17.819 168.511 19.456 168.511 25.969C168.511 33.333 168.677 34 170.511 34C172.36 34 172.511 33.333 172.511 25.155C172.511 17.639 172.216 16.043 170.55 14.536C169.103 13.226 167.729 12.934 165.3 13.421C163.491 13.785 161.336 14.049 160.511 14.009C159.686 13.969 155.974 13.785 152.261 13.601L145.511 13.267V23.634ZM178.221 13.62C178.106 13.734 178.148 20.194 178.314 27.976C178.586 40.648 178.795 42.092 180.314 41.805C181.464 41.587 182.109 40.319 182.314 37.871C182.607 34.373 182.739 34.262 186.503 34.361C191.433 34.49 195.124 31.251 196.008 26.018C196.752 21.613 194.645 15.677 191.796 14.153C190.258 13.33 178.966 12.886 178.221 13.62ZM200.511 23.648C200.511 33.333 200.64 34 202.511 34C204.312 34 204.513 33.328 204.526 27.25C204.544 19.569 205.307 17.787 208.651 17.619C210.305 17.536 211.011 16.901 211.011 15.5C211.011 13.767 210.31 13.486 205.761 13.398L200.511 13.296V23.648ZM217.826 14.007C215.912 14.778 213.511 17.798 213.511 19.434C213.511 20.722 218.343 19.88 218.873 18.5C219.647 16.483 225.388 16.517 226.166 18.543C226.963 20.619 226.601 20.857 221.074 21.889C215.469 22.936 213.261 24.805 213.261 28.5C213.261 32.155 215.766 34.373 219.72 34.217C221.53 34.146 224.923 34.044 227.261 33.991L231.511 33.894V25.902C231.511 18.749 231.253 17.651 229.056 15.455C226.482 12.88 222.043 12.308 217.826 14.007ZM454.146 15.073C452.697 16.212 451.511 17.787 451.511 18.573C451.511 20.479 454.938 20.395 456.553 18.449C458.274 16.376 463.884 16.914 464.315 19.193C464.557 20.469 463.696 21.033 460.823 21.481C453.271 22.659 449.732 25.76 450.851 30.219C451.72 33.682 456.404 35.581 460.529 34.143C462.223 33.553 464.859 33.32 466.386 33.625L469.162 34.18L468.752 25.34C468.412 18.019 467.993 16.199 466.315 14.75C463.518 12.334 457.422 12.496 454.146 15.073ZM486.178 13.667C485.811 14.033 485.511 18.758 485.511 24.167C485.511 33.333 485.647 34 487.511 34C489.384 34 489.511 33.333 489.511 23.5C489.511 15.417 489.204 13 488.178 13C487.444 13 486.544 13.3 486.178 13.667ZM496.511 15C494.16 17.351 493.9 21.248 495.979 22.974C496.787 23.644 499.374 24.761 501.729 25.457C504.815 26.368 506.011 27.249 506.011 28.61C506.011 31.418 501 31.756 499.318 29.062C497.702 26.475 494.511 26.331 494.511 28.845C494.511 31.311 497.45 33.838 501.188 34.585C507.402 35.828 513.245 30.108 510.671 25.299C510.11 24.251 507.159 22.624 504.026 21.636C498.045 19.751 497.134 17.738 502.002 17.168C503.819 16.955 505.158 17.405 505.725 18.418C507.38 21.375 511.163 19.863 509.959 16.726C508.507 12.941 499.7 11.811 496.511 15ZM528.966 15.455C527.616 16.805 526.511 18.38 526.511 18.955C526.511 20.533 530.094 20.208 531.511 18.5C533.154 16.52 538.401 16.55 539.166 18.543C539.965 20.624 539.607 20.856 533.959 21.911C529.085 22.821 525.511 25.675 525.511 28.656C525.511 29.445 526.669 31.249 528.084 32.664C530.294 34.874 531.177 35.134 534.334 34.501C536.357 34.095 539.52 33.82 541.364 33.889L544.717 34.015L544.364 25.419C544.052 17.82 543.737 16.601 541.65 14.912C538.184 12.105 532.053 12.367 528.966 15.455ZM551.434 15.923C548.96 18.398 548.511 19.637 548.511 24C548.511 28.393 548.954 29.597 551.511 32.154C553.161 33.804 554.511 35.569 554.511 36.077C554.511 36.585 555.299 37.045 556.261 37.1C557.368 37.163 557.094 37.455 555.516 37.894C554.144 38.275 552.861 39.422 552.665 40.441C552.352 42.063 552.779 42.218 556.078 41.683C560.195 41.015 561.769 39.469 561.114 36.737C560.866 35.702 561.928 33.737 563.683 31.982C566.782 28.883 566.999 26.724 564.264 26.193C563.372 26.02 562.398 26.782 562.03 27.941C561.671 29.071 560.207 30.289 558.776 30.648C553.729 31.915 550.562 24.228 554.068 19.223C556.022 16.432 559.837 16.353 561.639 19.065C562.548 20.433 563.593 20.906 564.736 20.468C566.291 19.871 566.319 19.529 565.023 17.024C562.397 11.945 555.935 11.422 551.434 15.923ZM573.011 14.195C570.68 15.517 569.548 16.997 569.526 18.75C569.505 20.519 573.179 20.308 573.873 18.5C574.938 15.723 582.511 17.173 582.511 20.155C582.511 20.57 580.824 21.189 578.761 21.53C572.443 22.577 569.523 24.103 568.871 26.7C567.485 32.225 572.833 36.337 578.587 34.17C579.92 33.668 582.545 33.486 584.421 33.766C587.337 34.2 587.735 34.025 587.171 32.555C586.808 31.61 586.511 27.723 586.511 23.918C586.511 18.333 586.126 16.615 584.511 15C582.265 12.754 576.29 12.336 573.011 14.195ZM595.813 14.012C593.063 15.119 590.511 19.926 590.511 24C590.511 33.59 601.127 38.295 607.488 31.524C610.08 28.765 610.686 21.564 608.646 17.753C606.401 13.557 600.914 11.957 595.813 14.012ZM817.511 23.596C817.511 33.333 817.639 34 819.511 34C821.286 34 821.511 33.333 821.511 28.065C821.511 20.201 822.775 17 825.879 17C828.222 17 830.213 14.552 828.653 13.588C828.229 13.326 825.549 13.13 822.697 13.152L817.511 13.192V23.596ZM831.511 23.5C831.511 33.333 831.638 34 833.511 34C835.384 34 835.511 33.333 835.511 23.5C835.511 13.667 835.384 13 833.511 13C831.638 13 831.511 13.667 831.511 23.5ZM839.508 14.25C839.506 14.938 841.116 19.663 843.086 24.75C847.775 36.864 849.183 37.02 853.43 25.896C857.935 14.1 858.131 13 855.729 13C854.171 13 853.224 14.434 851.436 19.5C850.174 23.075 848.811 26 848.408 26C848.004 26 846.701 23.075 845.511 19.5C843.851 14.51 842.902 13 841.429 13C840.374 13 839.51 13.563 839.508 14.25ZM863.911 13.741C863.306 14.158 862.274 15.519 861.618 16.765C859.908 20.01 862.9 21.033 865.606 18.128C868.503 15.019 873.511 15.557 873.511 18.978C873.511 20.333 872.384 20.892 868.652 21.387C865.753 21.771 863.08 22.819 862.027 23.983C859.739 26.51 859.765 30.981 862.077 32.672C864.242 34.255 869.872 34.412 872.577 32.965C873.91 32.251 874.511 32.251 874.511 32.965C874.511 33.534 875.411 34 876.511 34C878.34 34 878.51 33.338 878.496 26.25C878.476 15.357 877.374 13.567 870.486 13.241C867.475 13.098 864.516 13.323 863.911 13.741ZM886.74 13.669C884.637 14.515 882.511 19.646 882.511 23.874C882.511 32.702 892.145 37.457 898.056 31.545C899.406 30.195 900.511 28.395 900.511 27.545C900.511 25.211 897.526 25.691 894.984 28.435C893.41 30.133 892.066 30.696 890.543 30.298C885.701 29.032 885.432 18.905 890.182 16.74C892.412 15.724 892.979 15.86 894.539 17.786C896.375 20.053 898.965 20.692 899.938 19.118C900.238 18.632 899.557 17.057 898.425 15.618C896.765 13.507 895.556 13.015 892.188 13.079C889.891 13.122 887.439 13.388 886.74 13.669ZM903.511 23.5C903.511 33.333 903.638 34 905.511 34C907.384 34 907.511 33.333 907.511 23.5C907.511 13.667 907.384 13 905.511 13C903.638 13 903.511 13.667 903.511 23.5ZM936.912 15.508C935.532 16.888 934.679 18.463 935.016 19.008C936.045 20.673 938.958 20.115 940.279 18C941.779 15.599 944.778 15.41 946.949 17.581C949.166 19.798 948.275 20.623 942.861 21.365C940.274 21.72 937.337 22.753 936.334 23.66C933.991 25.781 933.994 30.222 936.34 32.345C938.321 34.138 944.115 34.536 946.477 33.042C947.402 32.457 948.406 32.498 949.194 33.152C951.997 35.478 952.82 33.494 952.594 24.95C952.318 14.523 951.262 13 944.311 13C940.423 13 938.906 13.514 936.912 15.508ZM982.81 14.503C979.537 16.796 978.022 22.423 979.42 27.092C980.824 31.776 983.778 34 988.599 34C992.502 34 997.511 30.868 997.511 28.427C997.511 26.407 994.761 26.658 991.855 28.944C989.24 31.001 986.831 30.738 984.761 28.169C982.565 25.444 983.362 25 990.452 25C994.27 25 997.677 24.541 998.023 23.98C999.038 22.338 996.545 16.137 994.212 14.503C993.032 13.676 990.466 13 988.511 13C986.556 13 983.99 13.676 982.81 14.503ZM923.919 17.898C926.328 20.56 925.74 27.79 922.965 29.622C921.224 30.772 920.589 30.743 918.715 29.43C914.711 26.626 916.528 16 921.011 16C921.666 16 922.974 16.854 923.919 17.898ZM968.511 18C972.849 22.338 969.359 32.594 964.44 29.962C960.382 27.79 959.708 20.125 963.322 17.25C965.448 15.559 966.175 15.664 968.511 18ZM991.682 17.655C994.57 20.268 993.876 21 988.511 21C983.082 21 982.265 19.986 985.734 17.557C988.541 15.59 989.416 15.604 991.682 17.655ZM134.94 18.571C137.001 20.633 136.952 26.855 134.856 29.171C132.915 31.316 130.586 31.506 128.142 29.72C126.048 28.188 125.633 20.763 127.515 18.495C129.134 16.545 132.952 16.584 134.94 18.571ZM190.476 18.934C192.022 21.824 191.725 27.643 189.94 29.429C186.235 33.133 182.238 30.316 182.238 24C182.238 21.818 182.805 19.351 183.497 18.517C185.263 16.388 189.241 16.626 190.476 18.934ZM603.94 18.571C606.001 20.633 605.952 26.855 603.856 29.171C601.897 31.336 599.583 31.504 597.066 29.664C594.9 28.08 594.533 20.884 596.497 18.517C598.131 16.547 601.944 16.575 603.94 18.571ZM334.91 25.25C335.27 27.587 335.835 31.004 336.166 32.842L336.768 36.184L333.39 34.472C328.914 32.203 326.617 30.105 324.836 26.662C322.609 22.355 323.689 21 329.352 21H334.255L334.91 25.25ZM398.745 24C398.367 27.551 395.685 30.795 390.695 33.736L386.38 36.28L387.024 29.89C387.959 20.61 387.771 20.853 393.75 21.197C398.698 21.482 398.995 21.649 398.745 24ZM742.384 23.684C737.793 26.533 736.511 29.966 736.511 39.404V48H733.234C731.431 48 728.956 48.701 727.734 49.557C725.595 51.054 725.511 51.717 725.511 67C725.511 82.283 725.595 82.946 727.734 84.443C731.013 86.74 768.009 86.74 771.288 84.443C773.427 82.946 773.511 82.283 773.511 67C773.511 51.717 773.427 51.054 771.288 49.557C770.066 48.701 767.591 48 765.788 48H762.511V38.882V29.765L758.629 25.882C755.169 22.423 754.216 22.003 749.879 22.027C747.164 22.041 743.849 22.774 742.384 23.684ZM871.512 29.2C868.804 31.393 867.151 31.476 865.511 29.5C863.758 27.388 865.774 25.202 869.835 24.808C873.796 24.424 874.65 26.66 871.512 29.2ZM946.846 29.003C945.035 30.679 941.818 30.944 939.959 29.572C937.506 27.762 938.896 26.082 943.668 25.09C946.481 24.506 947.064 24.7 947.346 26.313C947.53 27.368 947.305 28.578 946.846 29.003ZM226.511 26.965C226.511 29.292 223.3 31.253 220.209 30.813C217.075 30.367 217.295 26.789 220.511 25.895C225.035 24.636 226.511 24.9 226.511 26.965ZM464.511 26.345C464.511 28.528 460.861 31.187 458.354 30.83C455.174 30.378 454.736 27.242 457.687 26.059C461.143 24.673 464.511 24.814 464.511 26.345ZM539.511 26.965C539.511 29.292 536.3 31.253 533.209 30.813C530.075 30.367 530.295 26.789 533.511 25.895C538.035 24.636 539.511 24.9 539.511 26.965ZM582.511 25.777C582.511 27.778 579.159 31 577.077 31C574.059 31 571.979 28.667 573.749 27.267C576.335 25.221 582.511 24.172 582.511 25.777ZM752.288 30.557C754.268 31.943 754.511 32.982 754.511 40.057V48H749.511H744.511V40.057C744.511 32.982 744.754 31.943 746.734 30.557C747.956 29.701 749.206 29 749.511 29C749.816 29 751.066 29.701 752.288 30.557ZM96.966 46.455C94.105 49.315 93.769 53.523 96.187 56.194C97.109 57.213 100.371 58.765 103.437 59.644C106.503 60.523 109.574 61.692 110.261 62.243C112.384 63.944 111.693 66.98 108.946 68.025C104.73 69.628 102.518 69.161 99.357 66C96.087 62.73 93.511 62.098 93.511 64.566C93.511 71.084 104.233 75.264 111.42 71.547C115.104 69.642 116.945 65.272 115.579 61.679C114.502 58.846 110.826 56.755 103.864 55.015C101.583 54.445 99.464 53.321 99.156 52.518C97.432 48.025 108.043 46.294 109.998 50.75C110.616 52.157 111.858 53 113.316 53C115.257 53 115.538 52.625 114.998 50.75C113.772 46.496 109.856 44 104.41 44C100.445 44 98.916 44.504 96.966 46.455ZM430.876 45.919C424.698 49.686 422.808 60.832 427.306 66.977C431.612 72.859 441.8 74.662 447.954 70.629C450.181 69.17 450.511 68.248 450.511 63.477V58H444.511C439.178 58 438.511 58.222 438.511 60C438.511 61.672 439.178 62 442.581 62C446.224 62 446.617 62.234 446.331 64.241C445.577 69.522 435.44 70.268 431.554 65.328C428.129 60.973 429.104 52.599 433.424 49.282C436.101 47.227 442.177 47.726 444.472 50.189C445.593 51.392 446.511 52.7 446.511 53.095C446.511 53.49 447.411 53.577 448.511 53.29C450.866 52.674 450.837 52.811 449.316 49.472C446.86 44.081 437.004 42.182 430.876 45.919ZM548.511 46.5C548.511 48.333 549.044 49 550.511 49C551.978 49 552.511 48.333 552.511 46.5C552.511 44.667 551.978 44 550.511 44C549.044 44 548.511 44.667 548.511 46.5ZM570.511 47.846V51.692L565.923 51.596C562.261 51.519 560.956 51.968 559.455 53.821C555.517 58.684 555.748 66.328 559.961 70.541C561.985 72.564 563.219 72.886 568.421 72.741L574.511 72.573V58.286C574.511 44.667 574.418 44 572.511 44C570.858 44 570.511 44.667 570.511 47.846ZM791.511 58.07C791.511 72.088 791.519 72.138 793.761 71.82C795.721 71.541 796.05 70.824 796.313 66.25L796.616 61H802.14C806.913 61 808.063 60.602 810.588 58.077C814.318 54.347 814.497 49.895 811.056 46.455C808.833 44.231 807.796 44 800.056 44H791.511V58.07ZM909.511 46C909.511 47.467 910.178 48 912.011 48C913.844 48 914.511 47.467 914.511 46C914.511 44.533 913.844 44 912.011 44C910.178 44 909.511 44.533 909.511 46ZM932.511 47.937V51.874L928.956 51.297C922.547 50.257 918.511 54.237 918.511 61.597C918.511 65.833 920.842 70.657 923.25 71.405C924.219 71.706 927.598 71.916 930.761 71.873L936.511 71.793V57.897C936.511 44.667 936.415 44 934.511 44C932.85 44 932.511 44.667 932.511 47.937ZM538.711 46.2C538.051 46.86 537.511 48.224 537.511 49.231C537.511 50.239 536.836 51.322 536.011 51.638C535.186 51.955 534.511 52.793 534.511 53.5C534.511 54.207 535.186 55.045 536.011 55.362C537.161 55.803 537.511 57.699 537.511 63.49C537.511 70.523 537.679 71.119 539.947 72.153C541.287 72.763 543.087 72.993 543.947 72.663C546.162 71.813 545.888 69.332 543.511 68.71C541.786 68.259 541.511 67.346 541.511 62.062C541.511 57.54 541.904 55.787 543.011 55.362C543.836 55.045 544.511 54.159 544.511 53.393C544.511 52.627 543.836 52 543.011 52C541.963 52 541.511 50.944 541.511 48.5C541.511 44.836 540.723 44.188 538.711 46.2ZM855.178 45.667C854.811 46.033 854.511 47.221 854.511 48.306C854.511 49.392 853.723 50.892 852.761 51.64C851.094 52.935 851.094 53.065 852.761 54.36C854.129 55.423 854.511 57.236 854.511 62.66C854.511 70.328 855.442 72 859.711 72C863.025 72 863.648 69.11 860.511 68.29C858.774 67.836 858.511 66.926 858.511 61.383C858.511 56.376 858.834 55 860.011 55C860.844 55 861.511 54.111 861.511 53C861.511 51.889 860.844 51 860.011 51C859.011 51 858.511 50 858.511 48C858.511 45.179 856.837 44.007 855.178 45.667ZM684.011 48.935C676.817 50.686 670.722 55.888 667.859 62.718C665.742 67.772 666.085 80.252 668.421 83.139C670.323 85.49 670.437 85.501 695.171 85.797L720.011 86.095V67.047C720.011 45.854 720.392 46.812 713.011 49.471C707.769 51.36 699.817 51.372 694.511 49.5C689.926 47.882 688.623 47.812 684.011 48.935ZM807.311 49.2C809.148 51.037 808.739 54.808 806.577 55.965C805.513 56.534 802.813 57 800.577 57H796.511V52.5V48H801.311C803.951 48 806.651 48.54 807.311 49.2ZM124.87 52.406C119.457 54.829 117.812 65.36 122.106 70.104C124.384 72.622 129.852 73.516 133.566 71.977C136.765 70.652 139.009 67.615 137.998 65.979C136.989 64.346 134.646 64.879 133.511 67C131.49 70.776 124.511 69.07 124.511 64.8C124.511 63.238 125.437 63 131.511 63H138.511V60.056C138.511 53.688 131.185 49.58 124.87 52.406ZM146.342 52.489C140.983 55.48 140.192 65.473 144.959 69.951C146.857 71.735 148.251 72.139 151.444 71.835C154.644 71.53 155.511 71.783 155.511 73.024C155.511 77.115 150.822 78.177 146.784 75C143.623 72.514 142.511 72.473 142.511 74.845C142.511 77.796 146.066 80.273 150.301 80.273C158.541 80.273 160.496 76.627 160.505 61.25L160.511 52H157.636C156.055 52 153.467 51.775 151.886 51.5C150.281 51.22 147.832 51.658 146.342 52.489ZM193.696 51.872C192.973 52.326 191.269 52.485 189.91 52.225L187.438 51.753L187.725 62.115C187.972 71.054 188.251 72.523 189.761 72.812C191.271 73.101 191.511 72.322 191.511 67.138C191.511 59.203 192.767 56 195.879 56C197.837 56 200.359 53.395 199.285 52.481C198.208 51.565 194.779 51.191 193.696 51.872ZM205.868 51.992C204.689 52.467 203.005 53.885 202.124 55.142C200.668 57.221 200.666 57.507 202.102 58.311C203.22 58.936 204.268 58.565 205.689 57.04C208.259 54.28 213.011 54.561 213.011 57.472C213.011 59.022 212.07 59.605 208.621 60.194C203.227 61.115 200.511 63.427 200.511 67.098C200.511 71.871 206.717 74.566 211.641 71.931C213.088 71.156 214.026 71.182 215.041 72.025C217.99 74.472 218.823 72.617 218.598 64.109C218.338 54.259 218.137 53.606 214.909 52.135C212.016 50.818 208.9 50.768 205.868 51.992ZM460.736 51.666C458.157 52.21 455.008 56.377 455.984 57.956C457.003 59.605 458.918 59.179 460.279 57C461.58 54.916 465.006 54.394 467.407 55.914C470.028 57.574 467.81 59.706 462.885 60.261C459.591 60.633 457.53 61.493 456.3 63.012C453.997 65.856 454.047 67.14 456.584 70.365C458.821 73.21 463.027 73.865 466.641 71.931C468.085 71.157 469.024 71.181 470.031 72.017C470.797 72.652 471.844 72.913 472.357 72.595C473.67 71.783 472.546 54.786 471.076 53.216C469.722 51.772 464.176 50.94 460.736 51.666ZM481.727 51.726L478.442 52.132L478.727 62.316C478.957 70.575 479.294 72.5 480.511 72.5C481.649 72.5 482.073 71.052 482.268 66.5C482.659 57.396 483.163 56 486.061 56C488.923 56 490.506 53.243 488.407 51.914C487.639 51.428 486.561 51.096 486.011 51.175C485.461 51.255 483.533 51.503 481.727 51.726ZM495.911 52.38C492.788 53.788 491.026 56.406 492.067 58.09C493.009 59.615 494.961 59.11 496.279 57C498.353 53.679 505.513 54.945 504.188 58.399C503.809 59.388 502.395 60 500.493 60C496.447 60 491.818 62.456 490.999 65.038C490.122 67.802 492.857 71.798 496.2 72.637C497.665 73.004 500.195 72.803 501.821 72.189C503.843 71.426 505.374 71.391 506.66 72.08C509.314 73.5 509.867 71.455 509.285 62.377C508.983 57.671 508.255 54.315 507.338 53.398C505.213 51.274 499.495 50.765 495.911 52.38ZM522.182 51.662C521.818 52.026 519.927 52.265 517.981 52.191L514.442 52.058L514.726 62.279C514.957 70.571 515.294 72.5 516.511 72.5C517.672 72.5 518.079 70.924 518.312 65.523C518.694 56.66 521.225 53.268 525.457 55.945C526.426 56.559 527.085 59.436 527.457 64.68C527.885 70.718 528.353 72.5 529.511 72.5C530.7 72.5 531.071 70.787 531.302 64.245C531.571 56.582 531.413 55.811 529.097 53.495C526.7 51.099 523.574 50.27 522.182 51.662ZM583.911 52.38C580.788 53.788 579.026 56.406 580.067 58.09C581.048 59.678 583.401 59.074 584.542 56.942C586.067 54.093 592.011 54.537 592.011 57.5C592.011 58.892 591.251 59.585 589.511 59.78C582.12 60.608 579.511 62.495 579.511 67.015C579.511 71.893 585.671 74.59 590.684 71.907C592.161 71.117 593.028 71.117 593.818 71.907C596.653 74.742 597.511 73.045 597.511 64.611C597.511 58.103 597.118 55.741 595.761 54.08C593.547 51.371 587.936 50.566 583.911 52.38ZM817.511 61.586C817.511 71.089 817.674 72 819.379 72C820.998 72 821.313 70.981 821.736 64.398C822.242 56.516 823.372 54.536 826.761 55.59C827.915 55.949 828.511 55.601 828.511 54.567C828.511 53.705 828.513 52.663 828.516 52.25C828.519 51.837 826.044 51.426 823.016 51.336L817.511 51.172V61.586ZM834.424 52.282C831.784 54.309 830.511 57.626 830.511 62.48C830.511 68.604 833.676 72 839.384 72C844.744 72 846.327 71.256 848.048 67.928C852.127 60.04 847.719 50.966 839.838 51.032C837.733 51.049 835.297 51.612 834.424 52.282ZM867.434 53.923C864.964 56.393 864.511 57.64 864.511 61.969C864.511 68.91 867.437 72 874.011 72C877.552 72 879.163 71.439 881.056 69.545C882.406 68.195 883.511 66.62 883.511 66.045C883.511 64.272 879.62 64.891 877.511 67C876.411 68.1 874.836 69 874.011 69C872.034 69 868.273 65.195 869.034 63.964C869.361 63.434 872.811 63 876.701 63H883.773L883.176 59.25C881.901 51.242 873.095 48.262 867.434 53.923ZM889.077 54.104C885.259 58.641 885.466 65.108 889.559 69.202C892.208 71.851 893.126 72.181 896.559 71.72C900.658 71.171 901.735 72.376 899.311 74.8C897.609 76.502 892.563 76.299 891.873 74.5C891.01 72.252 887.511 72.608 887.511 74.943C887.511 80.029 897.743 81.859 902.056 77.545C904.386 75.216 904.511 74.488 904.511 63.263V51.435L898.077 51.245C892.028 51.065 891.49 51.236 889.077 54.104ZM909.967 52.255C909.67 53.027 909.559 57.673 909.72 62.579C909.995 71.01 910.137 71.518 912.297 71.824C914.566 72.146 914.581 72.076 914.297 61.836C914.05 52.936 913.771 51.477 912.258 51.188C911.294 51.003 910.263 51.484 909.967 52.255ZM944.146 53.073C942.697 54.212 941.511 55.787 941.511 56.573C941.511 58.505 945.193 58.39 946.294 56.424C947.505 54.26 953.874 54.86 954.313 57.18C954.561 58.494 953.583 59.01 949.821 59.549C944.793 60.27 940.511 63.215 940.511 65.952C940.511 66.834 941.206 68.547 942.055 69.759C943.443 71.741 944.389 71.947 951.433 71.797L959.267 71.63L958.763 63.065C958.43 57.419 957.738 53.904 956.73 52.75C954.539 50.243 947.515 50.423 944.146 53.073ZM165.511 60.5C165.511 67.667 165.825 69.314 167.511 71C169.613 73.102 173.996 73.611 176.477 72.042C177.4 71.458 178.403 71.496 179.184 72.143C181.713 74.242 182.511 71.796 182.511 61.941C182.511 52.049 182.499 52 180.053 52C177.682 52 177.585 52.271 177.303 59.645C177.074 65.628 176.631 67.529 175.261 68.39C173.988 69.19 173.034 69.19 171.761 68.39C170.391 67.529 169.948 65.628 169.719 59.645C169.458 52.821 169.217 52 167.469 52C165.679 52 165.511 52.728 165.511 60.5ZM548.511 61.893C548.511 69.458 548.841 71.913 549.913 72.324C552.232 73.214 552.511 72.088 552.511 61.833C552.511 52.667 552.375 52 550.511 52C548.646 52 548.511 52.667 548.511 61.893ZM132.858 56.831C135.044 59.246 134.089 60 128.844 60C124.243 60 123.534 59.12 126.082 56.571C128.171 54.483 130.825 54.585 132.858 56.831ZM153.956 56.336C155.239 57.274 155.784 58.963 155.784 62C155.784 66.296 153.894 69 150.891 69C148.49 69 146.511 65.837 146.511 62C146.511 56.109 150.007 53.449 153.956 56.336ZM568.94 56.571C570.811 58.442 571.062 66.049 569.311 67.8C568.651 68.46 567.166 69 566.011 69C562.779 69 561.511 67.028 561.511 62C561.511 55.442 565.151 52.783 568.94 56.571ZM844.1 57.496C847.017 61.947 844.243 69 839.577 69C837.382 69 834.511 64.935 834.511 61.829C834.511 55.49 840.896 52.605 844.1 57.496ZM877.311 56.2C879.425 58.314 878.618 59 874.011 59C871.536 59 869.511 58.64 869.511 58.2C869.511 56.702 871.905 55 874.011 55C875.166 55 876.651 55.54 877.311 56.2ZM899.476 56.934C900.881 59.559 900.784 65.327 899.311 66.8C896.214 69.897 890.511 66.463 890.511 61.5C890.511 56.123 897.215 52.709 899.476 56.934ZM931.961 59.348C933.682 66.317 928.861 71.35 924.572 67.061C922.319 64.808 921.96 61.579 923.51 57.502C924.349 55.296 925.032 54.924 927.76 55.187C930.61 55.461 931.128 55.974 931.961 59.348ZM753.311 63.2C753.971 63.86 754.511 65.57 754.511 67C754.511 70.305 752.816 72 749.511 72C746.206 72 744.511 70.305 744.511 67C744.511 65.57 745.051 63.86 745.711 63.2C747.258 61.653 751.764 61.653 753.311 63.2ZM213.511 64.8C213.511 67.383 211.532 69 208.37 69C203.118 69 203.931 64.536 209.334 63.709C210.806 63.484 212.349 63.232 212.761 63.15C213.173 63.067 213.511 63.81 213.511 64.8ZM468.511 64.878C468.511 67.534 466.109 69.199 462.821 68.822C458.777 68.359 458.916 64.754 463.011 63.878C467.962 62.819 468.511 62.919 468.511 64.878ZM504.511 64.878C504.511 67.534 502.109 69.199 498.821 68.822C494.777 68.359 494.916 64.754 499.011 63.878C503.962 62.819 504.511 62.919 504.511 64.878ZM592.511 64.8C592.511 67.383 590.532 69 587.37 69C582.118 69 582.931 64.536 588.334 63.709C589.806 63.484 591.348 63.232 591.761 63.15C592.174 63.067 592.511 63.81 592.511 64.8ZM954.511 64.171C954.511 66.248 951.27 69 948.825 69C945.713 69 944.61 66.132 947.04 64.355C949.313 62.693 954.511 62.565 954.511 64.171Z" fill="black"></path></svg>